<?xml version="1.0" encoding="utf-8"?>
<!-- Generator: Adobe Illustrator 16.0.2, SVG Export Plug-In . SVG Version: 6.00 Build 0)  -->
<!DOCTYPE svg PUBLIC "-//W3C//DTD SVG 1.1//EN" "http://www.w3.org/Graphics/SVG/1.1/DTD/svg11.dtd">
<svg version="1.1" id="Capa_1" xmlns="http://www.w3.org/2000/svg" xmlns:xlink="http://www.w3.org/1999/xlink" x="0px" y="0px"
	 width="64px" height="64px" viewBox="274 364 64 64" enable-background="new 274 364 64 64" xml:space="preserve">
<g>
	<path fill="#010002" d="M311.136,426.256c0,0.787,0.577,1.424,1.288,1.424h19.413c0.71,0,1.287-0.637,1.287-1.424v-28.099
		c0-0.788-0.577-1.424-1.287-1.424c-0.711,0-1.287,0.636-1.287,1.424v26.675h-16.84v-14.86c0-0.787-0.576-1.424-1.287-1.424h-12.629
		c-0.711,0-1.288,0.637-1.288,1.424v15.181h-17.055v-28.913c0-0.788-0.577-1.424-1.288-1.424c-0.71,0-1.287,0.636-1.287,1.424
		v30.337c0,0.787,0.577,1.424,1.287,1.424h19.63c0.71,0,1.287-0.637,1.287-1.424v-15.181h10.055V426.256z"/>
	<path fill="#010002" d="M337.523,391.94l-30.825-27.622c-0.468-0.42-1.134-0.425-1.607-0.011l-30.6,26.665
		c-0.559,0.487-0.655,1.381-0.215,1.999c0.44,0.617,1.251,0.725,1.807,0.236l29.792-25.96l30.027,26.904
		c0.238,0.212,0.525,0.317,0.81,0.317c0.375,0,0.747-0.181,1-0.527C338.16,393.332,338.075,392.435,337.523,391.94z"/>
</g>
</svg>
