<?xml version="1.0" encoding="utf-8"?>
<!-- Generator: Adobe Illustrator 16.0.2, SVG Export Plug-In . SVG Version: 6.00 Build 0)  -->
<!DOCTYPE svg PUBLIC "-//W3C//DTD SVG 1.1//EN" "http://www.w3.org/Graphics/SVG/1.1/DTD/svg11.dtd">
<svg version="1.1" id="Layer_1" xmlns="http://www.w3.org/2000/svg" xmlns:xlink="http://www.w3.org/1999/xlink" x="0px" y="0px"
	 width="64px" height="64px" viewBox="274 364 64 64" enable-background="new 274 364 64 64" xml:space="preserve">
<path d="M334.561,367.447c-2.835-2.834-6.864-4.023-10.787-3.182c-0.867,0.102-9.856,1.356-19.235,10.736l-9.768,9.769l-0.001,0.001
	l-9.769,9.768c-9.38,9.379-10.636,18.37-10.736,19.235c-0.84,3.924,0.347,7.953,3.183,10.787c2.293,2.293,5.305,3.439,8.316,3.439
	s6.023-1.146,8.316-3.439c3.456-3.454,4.413-8.761,2.383-13.205c-0.12-0.264-2.897-6.493,1.369-10.76l6.382-6.382l6.383-6.382
	c4.267-4.266,10.495-1.49,10.76-1.369c4.443,2.03,9.749,1.073,13.205-2.383C339.146,379.495,339.146,372.033,334.561,367.447z
	 M333.244,382.764c-2.908,2.909-7.376,3.716-11.111,2.007c-0.311-0.143-7.662-3.447-12.854,1.745l-6.383,6.382l-6.382,6.382
	c-5.192,5.192-1.887,12.544-1.745,12.851c1.709,3.739,0.903,8.206-2.006,11.114c-3.859,3.86-10.141,3.86-14.001,0
	c-2.396-2.396-3.395-5.806-2.67-9.122c0.008-0.034,0.013-0.068,0.018-0.104c0.009-0.089,1.013-8.971,10.207-18.165l9.769-9.768
	c0,0,0.001,0,0.001-0.001l9.769-9.769c9.157-9.157,18.075-10.197,18.163-10.207c0.035-0.004,0.07-0.01,0.104-0.017
	c3.315-0.726,6.727,0.273,9.123,2.669C337.104,372.623,337.104,378.904,333.244,382.764z"/>
</svg>
