<?xml version="1.0" encoding="utf-8"?>
<!-- Generator: Adobe Illustrator 16.0.2, SVG Export Plug-In . SVG Version: 6.00 Build 0)  -->
<!DOCTYPE svg PUBLIC "-//W3C//DTD SVG 1.1//EN" "http://www.w3.org/Graphics/SVG/1.1/DTD/svg11.dtd">
<svg version="1.1" id="Layer_1" xmlns="http://www.w3.org/2000/svg" xmlns:xlink="http://www.w3.org/1999/xlink" x="0px" y="0px"
	 width="64px" height="64px" viewBox="274 364 64 64" enable-background="new 274 364 64 64" xml:space="preserve">
<path d="M286.51,388.51h-9.814c-1.486,0-2.695,1.191-2.695,2.655v9.668c0,1.465,1.209,2.656,2.695,2.656h9.814
	c1.486,0,2.695-1.191,2.695-2.656v-9.668C289.205,389.702,287.996,388.51,286.51,388.51z M287.132,400.834
	c0,0.338-0.279,0.613-0.622,0.613h-9.814c-0.343,0-0.622-0.275-0.622-0.613v-9.668c0-0.338,0.279-0.612,0.622-0.612h9.814
	c0.343,0,0.622,0.274,0.622,0.612V400.834z M336.963,394.979h-41.33c-0.572,0-1.037,0.458-1.037,1.021s0.464,1.021,1.037,1.021
	h41.33c0.572,0,1.037-0.458,1.037-1.021S337.535,394.979,336.963,394.979z M286.51,413.021h-9.814c-1.486,0-2.695,1.19-2.695,2.654
	v9.669c0,1.464,1.209,2.655,2.695,2.655h9.814c1.486,0,2.695-1.191,2.695-2.655v-9.669
	C289.205,414.212,287.996,413.021,286.51,413.021z M287.132,425.345c0,0.339-0.279,0.612-0.622,0.612h-9.814
	c-0.343,0-0.622-0.273-0.622-0.612v-9.669c0-0.338,0.279-0.612,0.622-0.612h9.814c0.343,0,0.622,0.274,0.622,0.612V425.345z
	 M336.963,419.489h-41.33c-0.572,0-1.037,0.458-1.037,1.021c0,0.564,0.464,1.021,1.037,1.021h41.33c0.572,0,1.037-0.457,1.037-1.021
	C338,419.947,337.535,419.489,336.963,419.489z M286.51,364h-9.814c-1.486,0-2.695,1.191-2.695,2.655v9.668
	c0,1.464,1.209,2.655,2.695,2.655h9.814c1.486,0,2.695-1.191,2.695-2.655v-9.668C289.205,365.191,287.996,364,286.51,364z
	 M287.132,376.324c0,0.338-0.279,0.613-0.622,0.613h-9.814c-0.343,0-0.622-0.274-0.622-0.613v-9.668
	c0-0.338,0.279-0.613,0.622-0.613h9.814c0.343,0,0.622,0.274,0.622,0.613V376.324z M295.633,372.511h41.33
	c0.572,0,1.037-0.458,1.037-1.021c0-0.564-0.465-1.021-1.037-1.021h-41.33c-0.572,0-1.037,0.458-1.037,1.021
	C294.596,372.053,295.061,372.511,295.633,372.511z"/>
</svg>
