<?xml version="1.0" encoding="utf-8"?>
<!-- Generator: Adobe Illustrator 16.0.2, SVG Export Plug-In . SVG Version: 6.00 Build 0)  -->
<!DOCTYPE svg PUBLIC "-//W3C//DTD SVG 1.1//EN" "http://www.w3.org/Graphics/SVG/1.1/DTD/svg11.dtd">
<svg version="1.1" id="Capa_1" xmlns="http://www.w3.org/2000/svg" xmlns:xlink="http://www.w3.org/1999/xlink" x="0px" y="0px"
	 width="64px" height="64px" viewBox="0 0 64 64" enable-background="new 0 0 64 64" xml:space="preserve">
<g>
	<g>
		<path d="M32,64C14.354,64,0,49.646,0,32C0,14.354,14.354,0,32,0c17.646,0,32,14.354,32,32C64,49.646,49.646,64,32,64z M32,2.17
			C15.551,2.17,2.17,15.551,2.17,32c0,16.446,13.381,29.83,29.83,29.83c16.446,0,29.83-13.384,29.83-29.83
			C61.83,15.551,48.446,2.17,32,2.17z"/>
		<g>
			<path d="M32.336,36.105c-0.599,0-1.085-0.486-1.085-1.086V18.198c0-0.599,0.486-1.085,1.085-1.085c0.6,0,1.084,0.486,1.084,1.085
				v16.824C33.421,35.619,32.936,36.105,32.336,36.105z"/>
		</g>
		<g>
			<circle cx="32.336" cy="42.87" r="2.04"/>
			<path d="M32.336,45.271c-1.324,0-2.402-1.078-2.402-2.402c0-1.323,1.078-2.399,2.402-2.399s2.4,1.076,2.4,2.399
				C34.736,44.192,33.66,45.271,32.336,45.271z M32.336,41.191c-0.927,0-1.679,0.754-1.679,1.677c0,0.927,0.753,1.68,1.679,1.68
				c0.924,0,1.677-0.753,1.677-1.68C34.014,41.945,33.261,41.191,32.336,41.191z"/>
		</g>
	</g>
</g>
</svg>
