<?xml version="1.0" encoding="utf-8"?>
<!-- Generator: Adobe Illustrator 16.0.2, SVG Export Plug-In . SVG Version: 6.00 Build 0)  -->
<!DOCTYPE svg PUBLIC "-//W3C//DTD SVG 1.1//EN" "http://www.w3.org/Graphics/SVG/1.1/DTD/svg11.dtd">
<svg version="1.1" id="Layer_1" xmlns="http://www.w3.org/2000/svg" xmlns:xlink="http://www.w3.org/1999/xlink" x="0px" y="0px"
	 width="224px" height="224px" viewBox="-12.788 -12.788 224 224" enable-background="new -12.788 -12.788 224 224"
	 xml:space="preserve" style="max-width:100%;max-height:100%" data-type="circle">
<path d="M99.213-12.788c-61.856,0-112,50.144-112,112c0,61.857,50.144,112,112,112c61.857,0,112-50.143,112-112
	C211.212,37.356,161.068-12.788,99.213-12.788z M99.213,179.213c-44.182,0-80-35.817-80-80c0-44.182,35.817-80,80-80
	c44.183,0,80,35.817,80,80C179.213,143.396,143.396,179.213,99.213,179.213z"/>
<polygon fill="#010101" points="51.212,84.38 64.479,75.212 69.547,60.379 85.945,60.379 99.213,51.212 112.479,60.379 
	128.878,60.379 133.946,75.212 147.212,84.38 142.145,99.213 147.212,114.045 133.946,123.213 128.878,138.045 112.479,138.045 
	99.213,147.212 85.945,138.045 69.547,138.045 64.479,123.213 51.212,114.045 56.279,99.213 "/>
</svg>
