<?xml version="1.0" encoding="utf-8"?>
<!-- Generator: Adobe Illustrator 16.0.2, SVG Export Plug-In . SVG Version: 6.00 Build 0)  -->
<!DOCTYPE svg PUBLIC "-//W3C//DTD SVG 1.1//EN" "http://www.w3.org/Graphics/SVG/1.1/DTD/svg11.dtd">
<svg version="1.1" id="Layer_1" xmlns="http://www.w3.org/2000/svg" xmlns:xlink="http://www.w3.org/1999/xlink" x="0px" y="0px"
	 width="224px" height="224px" viewBox="-12.788 -12.788 224 224" enable-background="new -12.788 -12.788 224 224"
	 xml:space="preserve" style="max-width:100%;max-height:100%">
<path d="M200.713-12.788H-2.288c-5.799,0-10.5,4.701-10.5,10.5v203.001c0,5.799,4.701,10.499,10.5,10.499h203.001
	c5.799,0,10.499-4.7,10.499-10.499V-2.288C211.212-8.086,206.512-12.788,200.713-12.788z M179.213,171.712
	c0,4.142-3.357,7.501-7.501,7.501h-145c-4.143,0-7.5-3.357-7.5-7.501v-145c0-4.143,3.357-7.5,7.5-7.5h145
	c4.142,0,7.501,3.357,7.501,7.5V171.712L179.213,171.712z"/>
<path d="M147.212,142.712c0,2.486-2.016,4.5-4.5,4.5h-87c-2.486,0-4.5-2.016-4.5-4.5v-87c0-2.486,2.016-4.5,4.5-4.5h87
	c2.486,0,4.5,2.016,4.5,4.5V142.712z"/>
</svg>
