<?xml version="1.0" encoding="utf-8"?>
<!-- Generator: Adobe Illustrator 16.0.2, SVG Export Plug-In . SVG Version: 6.00 Build 0)  -->
<!DOCTYPE svg PUBLIC "-//W3C//DTD SVG 1.1//EN" "http://www.w3.org/Graphics/SVG/1.1/DTD/svg11.dtd">
<svg version="1.1" id="Layer_1" xmlns="http://www.w3.org/2000/svg" xmlns:xlink="http://www.w3.org/1999/xlink" x="0px" y="0px"
	 width="224px" height="224px" viewBox="-12.788 -12.788 224 224" enable-background="new -12.788 -12.788 224 224"
	 xml:space="preserve" style="max-width:100%;max-height:100%">
<path d="M197.666-12.788H0.759c-7.481,0-13.547,6.066-13.547,13.547v196.906c0,7.481,6.066,13.547,13.547,13.547h210.453
	c0,0,0-6.065,0-13.547V0.759C211.212-6.722,205.148-12.788,197.666-12.788z M179.213,169.537c0,5.345,0,9.675,0,9.675H28.889
	c-5.344,0-9.675-4.333-9.675-9.675V28.889c0-5.344,4.333-9.675,9.675-9.675h140.648c5.345,0,9.675,4.333,9.675,9.675v140.648
	H179.213z"/>
<path d="M147.212,141.407c0,3.206,0,5.806,0,5.806H57.019c-3.206,0-5.806-2.6-5.806-5.806V57.019c0-3.206,2.6-5.806,5.806-5.806
	h84.388c3.207,0,5.807,2.6,5.807,5.806L147.212,141.407L147.212,141.407z"/>
</svg>
