<?xml version="1.0" encoding="utf-8"?>
<!-- Generator: Adobe Illustrator 16.0.2, SVG Export Plug-In . SVG Version: 6.00 Build 0)  -->
<!DOCTYPE svg PUBLIC "-//W3C//DTD SVG 1.1//EN" "http://www.w3.org/Graphics/SVG/1.1/DTD/svg11.dtd">
<svg version="1.1" id="Layer_1" xmlns="http://www.w3.org/2000/svg" xmlns:xlink="http://www.w3.org/1999/xlink" x="0px" y="0px"
	 width="224px" height="224px" viewBox="-12.788 -12.788 224 224" enable-background="new -12.788 -12.788 224 224"
	 xml:space="preserve" style="max-width:100%;max-height:100%">
<path d="M197.666-12.788H0.759c-7.481,0-13.547,6.066-13.547,13.547v196.906c0,7.481,6.066,13.547,13.547,13.547h196.906
	c7.481,0,13.547-6.065,13.547-13.547V-12.788C211.212-12.788,205.148-12.788,197.666-12.788z M179.213,169.537
	c0,5.345-4.332,9.675-9.677,9.675H28.889c-5.344,0-9.675-4.333-9.675-9.675V28.889c0-5.344,4.333-9.675,9.675-9.675h140.648
	c5.345,0,9.675,0,9.675,0v150.323H179.213z"/>
<path d="M141.407,51.212c3.206,0,5.806,0,5.806,0v90.194c0,3.207-2.6,5.807-5.806,5.807H57.019c-3.206,0-5.806-2.6-5.806-5.807
	V57.019c0-3.206,2.6-5.806,5.806-5.806H141.407z"/>
</svg>
