<?xml version="1.0" encoding="utf-8"?>
<!-- Generator: Adobe Illustrator 16.0.2, SVG Export Plug-In . SVG Version: 6.00 Build 0)  -->
<!DOCTYPE svg PUBLIC "-//W3C//DTD SVG 1.1//EN" "http://www.w3.org/Graphics/SVG/1.1/DTD/svg11.dtd">
<svg version="1.1" id="Layer_1" xmlns="http://www.w3.org/2000/svg" xmlns:xlink="http://www.w3.org/1999/xlink" x="0px" y="0px"
	 width="224px" height="224px" viewBox="-12.788 -12.788 224 224" enable-background="new -12.788 -12.788 224 224"
	 xml:space="preserve" style="max-width:100%;max-height:100%">
<path d="M197.666-12.788H0.759c-7.481,0-13.547,0-13.547,0v210.453c0,7.481,6.066,13.547,13.547,13.547h196.906
	c7.481,0,13.547,0,13.547,0V0.759C211.212-6.722,205.148-12.788,197.666-12.788z M179.213,179.213c0,0-4.332,0-9.677,0H28.889
	c-5.344,0-9.675-4.332-9.675-9.677V19.212c0,0,4.333,0,9.675,0h140.648c5.345,0,9.675,4.333,9.675,9.675v150.326H179.213z"/>
<circle cx="99.213" cy="99.213" r="48"/>
</svg>
