<?xml version="1.0" encoding="utf-8"?>
<!-- Generator: Adobe Illustrator 16.0.2, SVG Export Plug-In . SVG Version: 6.00 Build 0)  -->
<!DOCTYPE svg PUBLIC "-//W3C//DTD SVG 1.1//EN" "http://www.w3.org/Graphics/SVG/1.1/DTD/svg11.dtd">
<svg version="1.1" id="Layer_1" xmlns="http://www.w3.org/2000/svg" xmlns:xlink="http://www.w3.org/1999/xlink" x="0px" y="0px"
	 width="224px" height="224px" viewBox="-12.788 -12.788 224 224" enable-background="new -12.788 -12.788 224 224"
	 xml:space="preserve" style="max-width:100%;max-height:100%">
<path d="M160.214-5.965l-173.002-6.822L0.961,165.731c0,0,5.729,41.501,36.089,45.481h174.147V36.675
	C211.198,36.675,213.49-5.965,160.214-5.965z M179.203,54.543v124.67H54.812c-21.688-2.844-25.778-32.488-25.778-32.488
	L19.212,19.212l123.573,4.874C180.84,24.086,179.203,54.543,179.203,54.543z"/>
<path d="M51.212,51.213l5.892,76.506c0,0,2.455,17.788,15.466,19.493h74.635V72.411c0,0,0.982-18.274-21.85-18.274L51.212,51.213z"
	/>
</svg>
