<?xml version="1.0" encoding="utf-8"?>
<!-- Generator: Adobe Illustrator 16.0.2, SVG Export Plug-In . SVG Version: 6.00 Build 0)  -->
<!DOCTYPE svg PUBLIC "-//W3C//DTD SVG 1.1//EN" "http://www.w3.org/Graphics/SVG/1.1/DTD/svg11.dtd">
<svg version="1.1" id="Layer_1" xmlns="http://www.w3.org/2000/svg" xmlns:xlink="http://www.w3.org/1999/xlink" x="0px" y="0px"
	 width="224px" height="224px" viewBox="-12.788 -12.788 224 224" enable-background="new -12.788 -12.788 224 224"
	 xml:space="preserve" style="max-width:100%;max-height:100%">
<path d="M195.189,5.696C126.538-32.378,2.795,0.169,2.795,0.169c-35.059,95.676,0,195.65,0,195.65
	c108.107,34.634,196.058,0,196.058,0C228.66,91.915,195.189,5.696,195.189,5.696z M170.385,168.218c0,0-62.823,24.738-140.042,0
	c0,0-25.042-71.411,0-139.75c0,0,88.387-23.248,137.424,3.948C167.767,32.416,191.675,94,170.385,168.218z"/>
<path d="M57.89,56.766c0,0,53.032-13.949,82.455,2.369c0,0,14.345,36.951,1.571,81.481c0,0-37.694,14.843-84.026,0
	C57.89,140.616,42.865,97.77,57.89,56.766z"/>
</svg>
