<?xml version="1.0" encoding="utf-8"?>
<!-- Generator: Adobe Illustrator 16.0.2, SVG Export Plug-In . SVG Version: 6.00 Build 0)  -->
<!DOCTYPE svg PUBLIC "-//W3C//DTD SVG 1.1//EN" "http://www.w3.org/Graphics/SVG/1.1/DTD/svg11.dtd">
<svg version="1.1" id="Layer_1" xmlns="http://www.w3.org/2000/svg" xmlns:xlink="http://www.w3.org/1999/xlink" x="0px" y="0px"
	 width="224px" height="224px" viewBox="-12.788 -12.788 224 224" enable-background="new -12.788 -12.788 224 224"
	 xml:space="preserve" style="max-width:100%;max-height:100%">
<path d="M194.577,40.462V3.848h-36.613c-17.081-10.544-37.203-16.635-58.75-16.635c-21.547,0-41.671,6.091-58.75,16.635H3.848
	v36.615c-10.544,17.08-16.635,37.203-16.635,58.75c0,21.547,6.091,41.671,16.635,58.75v36.613h36.615
	c17.08,10.546,37.204,16.636,58.75,16.636c21.547,0,41.671-6.091,58.75-16.636h36.613v-36.613
	c10.545-17.079,16.636-37.203,16.636-58.75C211.212,77.666,205.122,57.542,194.577,40.462z M167.331,141.177v26.152h-26.153
	c-12.199,7.532-26.574,11.884-41.965,11.884s-29.764-4.352-41.965-11.884H31.095v-26.152c-7.532-12.199-11.882-26.574-11.882-41.965
	s4.351-29.764,11.882-41.964V31.095h26.153c12.2-7.532,26.574-11.882,41.965-11.882c15.392,0,29.765,4.351,41.965,11.882h26.153
	v26.153c7.532,12.2,11.882,26.574,11.882,41.965C179.213,114.605,174.862,128.978,167.331,141.177z"/>
<path d="M140.083,124.392c4.519-7.32,7.13-15.944,7.13-25.179c0-9.234-2.609-17.859-7.13-25.178V58.342h-15.691
	c-7.32-4.519-15.944-7.13-25.179-7.13c-9.234,0-17.859,2.61-25.178,7.13H58.342v15.692c-4.519,7.319-7.13,15.944-7.13,25.178
	c0,9.235,2.61,17.859,7.13,25.179v15.691h15.692c7.319,4.519,15.944,7.13,25.178,7.13c9.235,0,17.859-2.609,25.179-7.13h15.691
	V124.392z"/>
</svg>
