<?xml version="1.0" encoding="utf-8"?>
<!-- Generator: Adobe Illustrator 16.0.2, SVG Export Plug-In . SVG Version: 6.00 Build 0)  -->
<!DOCTYPE svg PUBLIC "-//W3C//DTD SVG 1.1//EN" "http://www.w3.org/Graphics/SVG/1.1/DTD/svg11.dtd">
<svg version="1.1" id="Layer_1" xmlns="http://www.w3.org/2000/svg" xmlns:xlink="http://www.w3.org/1999/xlink" x="0px" y="0px"
	 width="224px" height="224px" viewBox="-12.788 -12.788 224 224" enable-background="new -12.788 -12.788 224 224"
	 xml:space="preserve" style="max-width:100%;max-height:100%">
<path d="M211.212-12.788c-112,28.66-224,0-224,0c24.933,112,0,224,0,224c112-28.076,224,0,224,0
	C179.22,105.413,211.212-12.788,211.212-12.788z M179.213,179.213c0,0-80-20.056-160,0c0,0,17.809-80,0-160c0,0,80,20.471,160,0
	C179.213,19.212,156.363,103.64,179.213,179.213z"/>
<path d="M51.212,51.212c10.687,48,0,96,0,96c48-12.032,96,0,96,0c-13.71-45.343,0-96,0-96
	C99.213,63.495,51.212,51.212,51.212,51.212z"/>
</svg>
