<?xml version="1.0" encoding="utf-8"?>
<!-- Generator: Adobe Illustrator 16.0.2, SVG Export Plug-In . SVG Version: 6.00 Build 0)  -->
<!DOCTYPE svg PUBLIC "-//W3C//DTD SVG 1.1//EN" "http://www.w3.org/Graphics/SVG/1.1/DTD/svg11.dtd">
<svg version="1.1" id="Layer_1" xmlns="http://www.w3.org/2000/svg" xmlns:xlink="http://www.w3.org/1999/xlink" x="0px" y="0px"
	 width="224px" height="224px" viewBox="-12.788 -12.788 224 224" enable-background="new -12.788 -12.788 224 224"
	 xml:space="preserve" style="max-width:100%;max-height:100%">
	<path d="M195.737,132.025C210.399,83.182,211.212-8.808,211.212-8.808c-28.509,15.467-81.455,8.955-115.666,0
		c-34.21-8.954-98.559,0-98.559,0s21.993,3.664,0,73.266c-21.994,69.602,0,140.833,0,140.833s45.638-14.1,85.901-3.122
		c41.31,11.264,118.549,8.82,118.549,8.82S181.074,180.87,195.737,132.025z M172.231,179.052c0,0-55.171,1.745-84.678-6.299
		c-28.759-7.841-61.358,2.229-61.358,2.229s-15.709-50.878,0-100.593c15.709-49.716,0-52.333,0-52.333s45.964-6.396,70.4,0
		c24.436,6.396,62.255,11.048,82.617,0c0,0-0.581,65.706-11.054,100.594C157.685,157.538,172.231,179.052,172.231,179.052z"/>
<path d="M55.402,52.918c0,0,27.578-3.838,42.24,0c14.663,3.838,37.353,6.629,49.571,0c0,0-0.349,39.424-6.633,60.356
	c-6.283,20.933,2.444,33.843,2.444,33.843s-33.103,1.047-50.807-3.779c-17.256-4.705-36.815,1.337-36.815,1.337
	s-9.424-30.527,0-60.356C64.827,54.489,55.402,52.918,55.402,52.918z"/>
</svg>
