<?xml version="1.0" encoding="utf-8"?>
<!-- Generator: Adobe Illustrator 16.0.2, SVG Export Plug-In . SVG Version: 6.00 Build 0)  -->
<!DOCTYPE svg PUBLIC "-//W3C//DTD SVG 1.1//EN" "http://www.w3.org/Graphics/SVG/1.1/DTD/svg11.dtd">
<svg version="1.1" id="Layer_1" xmlns="http://www.w3.org/2000/svg" xmlns:xlink="http://www.w3.org/1999/xlink" x="0px" y="0px"
	 width="224px" height="224px" viewBox="-12.788 -12.788 224 224" enable-background="new -12.788 -12.788 224 224"
	 xml:space="preserve" style="max-width:100%;max-height:100%">
<path d="M197.666-12.788H-12.788c0,0,0,6.066,0,13.547v196.906c0,7.481,6.066,13.547,13.547,13.547h196.906
	c7.481,0,13.547-6.065,13.547-13.547V-12.788C211.212-12.788,205.148-12.788,197.666-12.788z M179.213,169.537
	c0,5.345-4.332,9.675-9.677,9.675H28.889c-5.344,0-9.675-4.333-9.675-9.675V28.889c0-5.344,0-9.675,0-9.675h150.323
	c5.345,0,9.677,0,9.677,0V169.537z"/>
<path d="M51.212,57.019c0-3.206,0-5.806,0-5.806h90.194c3.207,0,5.807,0,5.807,0v90.194c0,3.207-2.6,5.807-5.807,5.807H57.019
	c-3.206,0-5.806-2.6-5.806-5.807V57.019z"/>
</svg>
