<?xml version="1.0" encoding="utf-8"?>
<!-- Generator: Adobe Illustrator 16.0.2, SVG Export Plug-In . SVG Version: 6.00 Build 0)  -->
<!DOCTYPE svg PUBLIC "-//W3C//DTD SVG 1.1//EN" "http://www.w3.org/Graphics/SVG/1.1/DTD/svg11.dtd">
<svg version="1.1" id="Layer_1" xmlns="http://www.w3.org/2000/svg" xmlns:xlink="http://www.w3.org/1999/xlink" x="0px" y="0px"
	 width="224px" height="224px" viewBox="-12.788 -12.788 224 224" enable-background="new -12.788 -12.788 224 224"
	 xml:space="preserve" style="max-width:100%;max-height:100%">
<path d="M210.832,88.133c-1.756-56.033-47.726-100.92-104.185-100.92H91.939C35.48-12.788-10.489,32.1-12.243,88.133h-0.544v123.08
	h224V88.133H210.832z M179.213,179.213H19.212V91.298h0.388c1.253-40.023,34.088-72.086,74.416-72.086h10.505
	c40.329,0,73.163,32.063,74.416,72.086h0.273v87.915H179.213z"/>
<path d="M102.398,51.212h-6.303c-24.197,0-43.898,19.238-44.65,43.252h-0.234v52.749h96v-52.75h-0.165
	C146.297,70.45,126.595,51.212,102.398,51.212z"/>
</svg>
