<?xml version="1.0" encoding="utf-8"?>
<!-- Generator: Adobe Illustrator 16.0.2, SVG Export Plug-In . SVG Version: 6.00 Build 0)  -->
<!DOCTYPE svg PUBLIC "-//W3C//DTD SVG 1.1//EN" "http://www.w3.org/Graphics/SVG/1.1/DTD/svg11.dtd">
<svg version="1.1" id="Layer_1" xmlns="http://www.w3.org/2000/svg" xmlns:xlink="http://www.w3.org/1999/xlink" x="0px" y="0px"
	 width="24px" height="24px" viewBox="0 0 24 24" enable-background="new 0 0 24 24" xml:space="preserve">
<path d="M20.143,17.034c0.146-0.067,0.295-0.126,0.451-0.177c0.51-0.222,0.979-0.504,1.396-0.84C23.221,15.029,24,13.598,24,12
	s-0.779-3.029-2.012-4.019c-0.416-0.335-0.885-0.618-1.396-0.839c-0.154-0.05-0.305-0.11-0.449-0.176
	c-1.343-0.608-2.271-1.84-2.271-3.279C17.873,1.651,19.716,0,21.988,0h-9.93h-0.116H2.011c2.274,0,4.117,1.651,4.117,3.688
	c0,1.438-0.928,2.671-2.269,3.279C3.712,7.033,3.563,7.092,3.407,7.142c-0.51,0.221-0.979,0.504-1.396,0.839
	C0.779,8.971,0,10.402,0,12s0.779,3.029,2.011,4.018c0.417,0.336,0.886,0.619,1.396,0.84c0.156,0.052,0.305,0.11,0.452,0.178
	c1.341,0.607,2.269,1.841,2.269,3.277C6.127,22.35,4.284,24,2.011,24h9.931h0.116h9.93c-2.273,0-4.116-1.65-4.116-3.688
	C17.873,18.875,18.801,17.643,20.143,17.034z"/>
</svg>
