<?xml version="1.0" encoding="utf-8"?>
<!-- Generator: Adobe Illustrator 16.0.2, SVG Export Plug-In . SVG Version: 6.00 Build 0)  -->
<!DOCTYPE svg PUBLIC "-//W3C//DTD SVG 1.1//EN" "http://www.w3.org/Graphics/SVG/1.1/DTD/svg11.dtd">
<svg version="1.1" id="Layer_1" xmlns="http://www.w3.org/2000/svg" xmlns:xlink="http://www.w3.org/1999/xlink" x="0px" y="0px"
	 width="24px" height="24px" viewBox="0 0 24 24" enable-background="new 0 0 24 24" xml:space="preserve">
<path id="_x33_" d="M23.839,23.987H0 M12.24,2.406c-3.148,1.875-7.565,6.38-9.406,9.588c1.841,3.212,6.258,7.712,9.406,9.587
	c3.15-1.875,7.566-6.38,9.409-9.587C19.807,8.786,15.391,4.281,12.24,2.406z M0.161,0c2.687,0,12.151,1.875,12.151,2.405
	C12.312,1.873,21.166,0,23.681,0 M23.681,23.981c-2.515,0-11.369-1.875-11.369-2.403c0,0.528-9.465,2.403-12.151,2.403 M24,0.028
	c0,2.563-1.837,11.59-2.358,11.59C22.163,11.618,24,21.263,24,24 M0.475,24c0-2.737,1.838-12.38,2.358-12.38
	c-0.521,0-2.358-9.03-2.358-11.59"/>
</svg>
