<?xml version="1.0" encoding="utf-8"?>
<!-- Generator: Adobe Illustrator 17.0.0, SVG Export Plug-In . SVG Version: 6.00 Build 0)  -->
<!DOCTYPE svg PUBLIC "-//W3C//DTD SVG 1.1//EN" "http://www.w3.org/Graphics/SVG/1.1/DTD/svg11.dtd">
<svg version="1.1" id="Layer_1" xmlns="http://www.w3.org/2000/svg" xmlns:xlink="http://www.w3.org/1999/xlink" x="0px" y="0px"
	 width="24.006px" height="24.009px" viewBox="0 0 24.006 24.009" style="max-width: 100%;max-height: 100%;" enable-background="new 0 0 24.006 24.009" xml:space="preserve">
<path id="DesignerTest6" d="M17.003,17.129h-10v-10h10V17.129z M9.008,7.129c-0.35,0-2.005-5.19-2.005-7.125v7.125H9.008z
	 M7.003,9.129v-2H0c1.917,0,6.935,1,6.935,2H7.003z M17.003,9.008c0-0.35,5.066-1.879,7.001-1.879h-7.001V9.008z M15.003,7.129h2V0
	c0,1.917-1,6.935-2,6.935V7.129z M14.998,17.129c0.35,0,2.005,4.942,2.005,6.877v-6.877H14.998z M17.003,15.129v2h7.003
	c-1.917,0-6.935-1-6.935-2H17.003z M7.003,15.001c0,0.35-5.067,2.128-7.002,2.128h7.002V15.001z M9.003,17.129h-2v6.88
	c0-1.917,1-6.935,2-6.935V17.129z"/>
</svg>
