<?xml version="1.0" encoding="utf-8"?>
<!-- Generator: Adobe Illustrator 16.0.2, SVG Export Plug-In . SVG Version: 6.00 Build 0)  -->
<!DOCTYPE svg PUBLIC "-//W3C//DTD SVG 1.1//EN" "http://www.w3.org/Graphics/SVG/1.1/DTD/svg11.dtd">
<svg version="1.1" id="Layer_1" xmlns="http://www.w3.org/2000/svg" xmlns:xlink="http://www.w3.org/1999/xlink" x="0px" y="0px"
	 width="24px" height="24px" viewBox="0 0 24 24" enable-background="new 0 0 24 24" xml:space="preserve">
<path id="_x32_" d="M12.01,19.143c-2.41-1.209-5.986-4.782-7.194-7.193C6.024,9.54,9.6,5.964,12.01,4.755
	c2.41,1.208,5.984,4.785,7.193,7.194C17.994,14.363,14.42,17.934,12.01,19.143z M0.019,0C2.669,0,12.01,3.704,12.01,4.755
	C12.01,3.704,21.349,0,24,0 M24,23.98c-2.651,0-11.99-3.704-11.99-4.754c0,1.05-9.341,4.754-11.991,4.754 M24,0.018
	c0,2.65-3.705,11.991-4.754,11.991C20.298,12.009,24,21.348,24,24 M0.019,24c0-2.65,3.705-11.991,4.755-11.991
	c-1.05,0-4.755-9.337-4.755-11.991"/>
</svg>
