<?xml version="1.0" encoding="utf-8"?>
<!-- Generator: Adobe Illustrator 17.0.0, SVG Export Plug-In . SVG Version: 6.00 Build 0)  -->
<!DOCTYPE svg PUBLIC "-//W3C//DTD SVG 1.1//EN" "http://www.w3.org/Graphics/SVG/1.1/DTD/svg11.dtd">
<svg version="1.1" id="Layer_1" xmlns="http://www.w3.org/2000/svg" xmlns:xlink="http://www.w3.org/1999/xlink" x="0px" y="0px"
	 width="24px" height="24px" viewBox="0 0 24 24" enable-background="new 0 0 24 24" style="max-width: 100%;max-height: 100%;" xml:space="preserve">
<path id="_x34_" d="M12.046,11.25c0-0.249,2.668-2.25,3-2.25c0,0.332-2.001,3-2.25,3c0.249,0,2.25,2.668,2.25,3
	c-0.332,0-3-2.001-3-2.25c0,0.249-2.668,2.25-3,2.25c0-0.332,2.001-3,2.25-3c-0.249,0-2.25-2.668-2.25-3
	C9.377,9,12.046,11.001,12.046,11.25z M17.046,7h-10v10h10V7z M12.796,12l-0.75,0.75L11.296,12l0.75-0.75L12.796,12z M7.046,7V0
	c0,1.935,0.678,7,0.954,7H7.046z M6.935,8c0-0.276-5.018-1-6.935-1h7.046v1H6.935z M17.046,7H24c-1.935,0-6.954,0.724-6.954,1V7z
	 M16.046,6.935c0,0,1-5.018,1-6.935v7h-1V6.935z M17.046,17v7c0-1.935-0.769-7-1.046-7H17.046z M17.065,16c0,0,5.018,1,6.935,1
	h-6.954v-1H17.065z M7.046,17H0c1.935,0,7.046-0.724,7.046-1V17z M8.046,17.065c0,0-1,5.018-1,6.935v-7h1V17.065z"/>
</svg>
